<svg width="512" height="512" viewBox="0 0 512 512" fill="none" xmlns="http://www.w3.org/2000/svg" role="img" aria-labelledby="title desc">
  <title id="title">KittyUp ledger cat logo concept</title>
  <desc id="desc">A simple white cat on a green rounded square, looking after an open kitty ledger.</desc>
  <rect width="512" height="512" rx="92" fill="#09A85A"/>
  <path d="M110 428c35 7 80 2 124 22V333c-37-18-83-14-114-23l-10 118Z" fill="#FFFDF7" stroke="#06194B" stroke-width="13" stroke-linejoin="round"/>
  <path d="M402 428c-35 7-80 2-124 22V333c37-18 83-14 114-23l10 118Z" fill="#FFFDF7" stroke="#06194B" stroke-width="13" stroke-linejoin="round"/>
  <path d="M234 333v117M278 333v117" stroke="#06194B" stroke-width="13" stroke-linecap="round"/>
  <path d="M123 408c33 2 70 8 111 24M389 408c-33 2-70 8-111 24" stroke="#06194B" stroke-width="8" stroke-linecap="round"/>
  <path d="M94 333c-40-4-69-32-69-76 0-41 31-75 74-80 8-34 27-62 62-78l23-47 34 38c12-2 25-3 38-3s26 1 38 3l34-38 23 47c35 16 54 44 62 78 43 5 74 39 74 80 0 44-29 72-69 76" fill="#FFFDF7"/>
  <path d="M94 333c-40-4-69-32-69-76 0-41 31-75 74-80 8-34 27-62 62-78l23-47 34 38c12-2 25-3 38-3s26 1 38 3l34-38 23 47c35 16 54 44 62 78 43 5 74 39 74 80 0 44-29 72-69 76" stroke="#06194B" stroke-width="13" stroke-linecap="round" stroke-linejoin="round"/>
  <path d="M109 218H54M108 249H49M404 218h54M405 249h58" stroke="#06194B" stroke-width="11" stroke-linecap="round"/>
  <circle cx="232" cy="188" r="6.5" fill="#06194B"/>
  <circle cx="280" cy="188" r="6.5" fill="#06194B"/>
  <path d="M188 315c-16 1-34-2-51-13-23-15-31-46-18-71 9-18 30-29 52-34l28-7 15 47-22 10 21 57-25 11Z" fill="#FFFDF7" stroke="#06194B" stroke-width="13" stroke-linejoin="round"/>
  <path d="M156 204 181 267" stroke="#06194B" stroke-width="13" stroke-linecap="round"/>
  <path d="M171 278 205 305" stroke="#06194B" stroke-width="10" stroke-linecap="round"/>
  <path d="M324 314c29 6 58 0 78-19 19-18 22-48 7-70-13-19-33-28-56-29-28 35-79 34-106 68" stroke="#06194B" stroke-width="13" stroke-linecap="round" stroke-linejoin="round"/>
  <path d="M300 306c25-24 58-25 89-47" stroke="#06194B" stroke-width="10" stroke-linecap="round"/>
  <path d="M186 349c13 12 30 20 48 24M326 349c-13 12-30 20-48 24" stroke="#09A85A" stroke-width="8" stroke-linecap="round"/>
</svg>
